<svg width="67" height="64" viewBox="0 0 67 64" fill="none" xmlns="http://www.w3.org/2000/svg">
<path d="M53.8577 9.07077C48.0778 9.83222 42.8593 11.7229 38.3043 15.3674C37.0491 16.3716 35.9266 17.4859 34.8815 18.6968C34.3942 19.2614 33.8924 20.2386 33.2302 20.6049C32.5281 20.9932 31.3779 20.6836 30.5948 20.782C28.927 20.9916 27.3045 21.4954 25.8312 22.2834C23.5051 23.5276 21.7614 25.5925 20.5065 27.8393C20.1749 28.433 19.3466 29.7106 19.629 30.4042C19.9349 31.1554 21.3087 30.682 21.8997 30.6137C23.7207 30.4031 26.4172 30.368 28.0383 31.3411C28.6722 31.7216 28.1744 32.5129 28.0234 33.0418C27.6744 34.2637 27.151 35.5664 28.2025 36.5728C29.1819 37.5101 30.9483 39.6152 32.3926 39.7063C33.3595 39.7672 35.4543 38.2953 36.2031 38.7821C36.662 39.0804 36.8131 39.9504 36.9535 40.4329C37.4392 42.1014 37.5327 43.778 37.2874 45.4909C37.2175 45.9791 36.6111 47.6672 37.5731 47.6046C38.623 47.5362 39.8705 46.406 40.6483 45.7946C43.395 43.6354 45.6993 40.6429 46.2188 37.1625C46.4173 35.8327 45.8134 33.5214 46.41 32.3839C47.2173 30.8449 49.1444 29.5441 50.2416 28.1454C52.3909 25.4054 54.0011 22.283 55.0575 18.9924C55.8041 16.6671 56.0924 14.0384 56.0955 11.6122C56.0963 10.9896 56.3402 9.71953 55.8544 9.234C55.4411 8.82102 54.3815 9.00178 53.8577 9.07077ZM43.4833 17.7906C48.7117 17.0447 49.7064 25.0309 44.4541 25.6385C39.3626 26.2275 38.4033 18.5153 43.4833 17.7906ZM0.684723 63.0088C4.41004 62.4826 8.09168 60.984 11.7345 60.0733C12.8615 59.7916 14.5439 58.9464 15.7074 59.1152C16.6816 59.2566 17.8099 60.1598 18.6871 60.5942C20.2715 61.3788 21.9689 61.9703 23.6533 62.5227C28.4871 64.108 34.0371 64.3599 39.0484 63.5529C58.741 60.3814 71.5345 40.1464 65.4933 21.8889L61.8928 23.5575C67.4817 40.3367 53.6456 59.3734 35.3238 60.1436C31.0226 60.3244 26.6553 59.7192 22.66 58.1386C21.2979 57.5998 19.9555 56.9824 18.6871 56.2623C17.9834 55.8628 17.1485 55.1634 16.3282 55.0491C15.3143 54.9079 14.0654 55.4924 13.1002 55.7551L6.14752 57.6453C7.07123 55.2948 7.53807 52.6911 8.18045 50.2557C8.4099 49.3858 9.10643 48.0484 8.92959 47.1568C8.61781 45.5847 7.05201 43.8996 6.39726 42.3892C4.76511 38.6241 3.81016 34.5614 3.91456 30.4704C4.28186 16.0778 16.3041 5.12188 30.8542 3.79255C33.3851 3.56132 36.2028 3.80889 38.676 4.35482C40.1189 4.67332 41.5604 5.25192 43.0214 5.44094L44.3871 1.98449C39.3188 0.831493 34.6592 -0.461525 29.3644 0.162743C23.5554 0.847626 18.015 2.66733 13.2243 5.96876C4.24076 12.1597 -0.675718 22.8057 0.0750687 33.331C0.313966 36.68 1.14015 39.9911 2.4478 43.1044C2.90989 44.2045 3.44696 45.2656 4.00663 46.3224C4.25822 46.7976 4.71044 47.3203 4.71802 47.8719C4.73604 49.1844 3.98072 50.7761 3.63148 52.0435C2.64599 55.6199 1.19899 59.3426 0.684723 63.0088Z" fill="white"/>
</svg>
